<?xml version="1.0" encoding="utf-8"?>
<!-- Generator: Adobe Illustrator 22.0.1, SVG Export Plug-In . SVG Version: 6.00 Build 0)  -->
<svg version="1.1" id="Слой_1" xmlns="http://www.w3.org/2000/svg" xmlns:xlink="http://www.w3.org/1999/xlink" x="0px" y="0px"
	 viewBox="0 0 290 260" style="enable-background:new 0 0 290 260;" xml:space="preserve">
<style type="text/css">
	.st0{fill:#2d3436;}
</style>
<g>
	<rect x="94.5" y="143.5" class="st0" width="94" height="1"/>
	<rect x="94.5" y="148.4" class="st0" width="94" height="1"/>
	<rect x="94.5" y="158.2" class="st0" width="94" height="1"/>
	<rect x="94.5" y="168" class="st0" width="94" height="1"/>
	<rect x="160.5" y="182.5" class="st0" width="29.5" height="1"/>
	<rect x="160.5" y="185.5" class="st0" width="29.5" height="1"/>
	<rect x="94.5" y="163.1" class="st0" width="94" height="1"/>
	<rect x="94.5" y="153.3" class="st0" width="94" height="1"/>
	<rect x="94.5" y="138.5" class="st0" width="94" height="1"/>
	<rect x="94.5" y="128.7" class="st0" width="94" height="1"/>
	<rect x="94.5" y="133.6" class="st0" width="94" height="1"/>
	<rect x="94.5" y="123.8" class="st0" width="94" height="1"/>
	<rect x="94.5" y="118.9" class="st0" width="94" height="1"/>
	<rect x="94" y="63.7" class="st0" width="57" height="1"/>
	<path class="st0" d="M203,36c-10.8,0-19.5,8.7-19.5,19.5S192.2,75,203,75s19.5-8.7,19.5-19.5S213.7,36,203,36z M203,74
		c-10.2,0-18.5-8.3-18.5-18.5S192.8,37,203,37s18.5,8.3,18.5,18.5S213.2,74,203,74z"/>
	<path class="st0" d="M236.8,53c0.6-0.8,0.8-1.8,0.6-2.8c-0.2-1-0.8-1.8-1.6-2.3l-7.4-4.5c-0.7-0.4-1.1-1.1-1.2-1.9l-0.9-8.2
		c-0.2-1.9-2-3.3-3.9-3.1l-9.1,0.9c-0.7,0.1-1.4-0.2-2-0.6l-6.6-6.1c-1.4-1.3-3.5-1.2-4.9,0.1l-6.1,6.1c-0.5,0.5-1.3,0.8-2,0.7
		l-9-0.7c-1-0.1-1.9,0.2-2.6,0.9c-0.7,0.6-1.1,1.5-1.2,2.5l-0.4,7.9c0,0.4-0.1,0.7-0.3,1.1H79c-0.3,0-0.5,0.2-0.5,0.5v162.3
		c0,0.3,0.2,0.5,0.5,0.5h3.3v3.3c0,0.3,0.2,0.5,0.5,0.5h127.4c0.3,0,0.5-0.2,0.5-0.5V98.4l2.8,11.3V213H87v-2.8h-1v3.3
		c0,0.3,0.2,0.5,0.5,0.5H89v2.5c0,0.3,0.2,0.5,0.5,0.5H217c0.3,0,0.5-0.2,0.5-0.5V108.6l5.4-7.8l12.4,5.8c0.2,0.1,0.4,0.1,0.5-0.1
		c0.1-0.1,0.2-0.3,0.2-0.5l-9-31l4.9-1.2c1-0.2,1.8-0.9,2.2-1.7s0.6-1.9,0.2-2.8l-2.5-7.5c-0.3-0.8-0.1-1.6,0.4-2.3L236.8,53z
		 M79.5,44h98l-6.8,4.5c-0.8,0.5-1.4,1.4-1.5,2.4s0.1,2,0.7,2.8l5.2,6.4c0.5,0.6,0.7,1.5,0.5,2.2l-2,7.7c-0.2,0.9-0.1,1.9,0.4,2.7
		c0.5,0.8,1.3,1.4,2.2,1.6l8.8,2c0.2,0,0.3,0.1,0.5,0.2l-9.1,30.8c-0.1,0.2,0,0.4,0.1,0.5c0.1,0.1,0.4,0.2,0.5,0.1l12.7-5.6
		l7.5,11.4c0.1,0.1,0.3,0.2,0.4,0.2c0,0,0.1,0,0.1,0c0.2,0,0.4-0.2,0.4-0.4l7.8-28.2v120.1H79.5V44z M186.6,77.6l4,7.6
		c0.6,1.2,1.8,1.9,3.1,1.9c0.5,0,1-0.1,1.5-0.3l8.1-3.8c0.7-0.3,1.4-0.3,2.1,0l0.1,0l-8,29.2l-7.2-10.9c-0.1-0.2-0.4-0.3-0.6-0.2
		l-12.1,5.4l8.7-29.4C186.4,77.3,186.5,77.4,186.6,77.6z M209.7,94.5v114.6H83.3v-2.8h123.1c0.3,0,0.5-0.2,0.5-0.5V83.6l0.2,0.1
		L209.7,94.5L209.7,94.5z M216.5,216H90v-2H214c0.3,0,0.5-0.2,0.5-0.5v-101c0,0,0.1,0,0.1,0c0.2,0,0.3-0.1,0.4-0.2l1.5-2.2V216z
		 M234.7,105.2l-11.8-5.5c-0.2-0.1-0.5,0-0.6,0.2l-7.5,10.9l-0.3-1.2V109h-0.1l-6.1-24.9l5.6,2.4c1.8,0.8,3.8,0,4.6-1.8l3.3-7.5
		c0.3-0.7,0.9-1.2,1.7-1.4l2.6-0.6L234.7,105.2z M230.8,62l2.5,7.5c0.2,0.7,0.2,1.4-0.2,2c-0.3,0.6-0.9,1.1-1.6,1.2l-8.4,2.1
		c-1.1,0.3-1.9,1-2.4,2l-3.3,7.5c-0.6,1.3-2,1.8-3.3,1.3l-8.4-3.6c-0.9-0.4-2-0.4-2.9,0l-8.1,3.8c-1.2,0.6-2.7,0.1-3.3-1.1l-4-7.6
		c-0.5-0.9-1.3-1.6-2.3-1.8l-8.8-2c-0.7-0.2-1.2-0.6-1.6-1.2c-0.4-0.6-0.5-1.3-0.3-2l2-7.7c0.3-1.1,0-2.3-0.7-3.1l-5.2-6.4
		c-0.5-0.6-0.6-1.3-0.5-2c0.1-0.7,0.5-1.3,1.1-1.7l6.9-4.5c0.9-0.6,1.5-1.7,1.6-2.8l0.4-7.9c0-0.7,0.3-1.3,0.9-1.8
		c0.5-0.4,1-0.6,1.7-0.6c0.1,0,0.1,0,0.2,0l9,0.7c1,0.1,2.1-0.3,2.8-1l6.1-6.1c1-1,2.5-1,3.5-0.1l6.6,6.1c0.7,0.7,1.7,1,2.7,0.9
		l9.1-0.9c1.4-0.1,2.6,0.9,2.8,2.2l0.9,8.2c0.1,1.1,0.7,2,1.7,2.6l7.4,4.5c0.6,0.4,1,1,1.2,1.7s0,1.4-0.4,2v0l-4.7,6.4
		C230.6,59.7,230.5,60.9,230.8,62z"/>
</g>
</svg>
