<?xml version="1.0" encoding="utf-8"?>
<!-- Generator: Adobe Illustrator 22.0.1, SVG Export Plug-In . SVG Version: 6.00 Build 0)  -->
<svg version="1.1" id="Слой_1" xmlns="http://www.w3.org/2000/svg" xmlns:xlink="http://www.w3.org/1999/xlink" x="0px" y="0px"
	 viewBox="0 0 290 260" style="enable-background:new 0 0 290 260;" xml:space="preserve">
<style type="text/css">
	.st0{fill:#2d3436;}
</style>
<g>
	<path class="st0" d="M270.7,46.4c0-0.6-0.3-1.3-0.8-1.7c-0.5-0.4-1.2-0.6-1.8-0.4l-11.7,2.2c-0.2,0-0.4,0-0.5,0L252,45
		c-0.3-0.1-0.6-0.1-0.8-0.1l-6.5,0.3c-0.4,0-0.8-0.2-0.9-0.5l-4.6-8.1c-0.1-0.1-0.1-0.2-0.2-0.3l-6-7.2c-0.4-0.4-0.9-0.7-1.4-0.8
		l-6.7-0.8c-0.4-0.1-0.8,0-1.2,0.2l-7.7,3.6c-0.8,0.4-1.3,1.2-1.3,2v5.3c0,0.2,0,0.4-0.1,0.5l-7.4,12.7c-0.4,0.7-0.4,1.7,0.1,2.4
		l5.2,7.8c0.3,0.4,0.2,0.9-0.1,1.3l-2.2,2.4c-0.1,0.1-0.2,0.2-0.2,0.3l-2.4,3.6c-0.1,0.1-0.1,0.2-0.2,0.2l-15.4,12.9
		c-0.1,0.1-0.2,0.1-0.2,0.2l-12.8,14.3c-0.2,0.2-0.4,0.3-0.7,0.3L167,98c-0.5,0-0.9,0.2-1.3,0.5l-4.4,3.6c-0.2,0.1-0.3,0.2-0.5,0.2
		l-5.4,0.6c-0.1,0-0.2,0-0.3,0l-19-4.3c-0.1,0-0.1,0-0.2,0L125,96.9c-0.4-0.1-0.7-0.3-0.8-0.6l-4-9.1c-0.2-0.4-0.5-0.8-0.9-1
		l-5.5-3.2c-0.2-0.1-0.4-0.2-0.7-0.3l-9.6-1.9c-0.5-0.1-0.9-0.6-0.8-1.1l0.8-8.6c0.1-0.6-0.1-1.1-0.5-1.6l-4.1-5.2
		c-0.3-0.4-0.7-0.6-1.1-0.8l-12.9-3.8c-0.8-0.2-1.6,0-2.2,0.5l-7,6.7c0,0-0.1,0.1-0.1,0.1l-9.9,7.1l-6.1,4.2
		c-0.8,0.6-1.2,1.6-0.9,2.6l0.9,2.8c0.1,0.3,0.1,0.6-0.1,0.9c-0.2,0.3-0.4,0.4-0.7,0.5l-2.7,0.4c-0.2,0-0.4,0.1-0.6,0.1l-21.1,8.6
		c0,0-0.1,0-0.1,0l-8.6,2.3c-0.9,0.2-1.5,0.9-1.6,1.8l-0.7,4.6c-0.1,0.4,0,0.9,0.2,1.3l4.8,10.8c0.2,0.4,0.5,0.7,0.8,1L46,127.1
		c0.3,0.2,0.4,0.5,0.5,0.8s-0.1,0.6-0.4,0.9l-4.6,4c-0.2,0.2-0.5,0.3-0.8,0.2l-0.4,0c-0.7-0.1-1.4,0.2-1.8,0.7
		c-0.5,0.5-0.7,1.2-0.6,1.9l0.7,5c0,0.3,0,0.6-0.2,0.8s-0.4,0.4-0.7,0.4l-1.8,0.2c-1.1,0.1-1.9,1.1-1.9,2.2v5.8c0,1,0.7,1.9,1.6,2.2
		l2.9,0.8c0.2,0,0.3,0.1,0.4,0.3l4.8,4.8c0.3,0.3,0.7,0.5,1.2,0.6l4.3,0.8c0.3,0,0.5,0.2,0.7,0.4l4.7,6.5c0.1,0.1,0.2,0.2,0.3,0.3
		l3.6,3.3c0.1,0.1,0.1,0.1,0.2,0.2l0.6,1.4l0.1,0c2,14.4,20.6,54.8,21.4,56.6c0.1,0.2,0.3,0.3,0.5,0.3s0.4-0.1,0.5-0.3
		c0.7-1.6,14.8-32.1,19.9-49.6l0.1,0.1l1.8-1.8c0.1,0,0.1,0,0.2-0.1l12.7-2.5c0.3-0.1,0.6,0,0.8,0.2c0.2,0.2,0.4,0.4,0.4,0.7
		l0.4,2.7c0.2,1.2,1.2,2,2.4,1.9l4.4-0.4c0.4,0,0.7,0.1,0.9,0.4l3.3,4.3c0.2,0.2,0.2,0.5,0.2,0.7l-0.6,7.2c0,0.2-0.1,0.4-0.3,0.6
		l-5,5.6c-0.4,0.4-0.6,0.9-0.6,1.5v2.6c0,1.2,1,2.2,2.2,2.2h2.9c0.4,0,0.7,0.2,0.9,0.6l6.6,12.7c0.5,1,1.8,1.5,2.9,1l2.5-1l2.5-1.2
		c0.2-0.1,0.3-0.2,0.4-0.3l3.4-2.8c0.2-0.1,0.3-0.2,0.5-0.2l11.9-1.5c0.1,0,0.3,0,0.4,0l26.5,6.9v1.8c0,0.2,0.1,0.4,0.3,0.5l1.2,0.6
		c0.3,0.2,0.7,0.2,1,0.2c0.3,0,0.6-0.1,0.9-0.2l3.4-1.6c0.1,0,0.1-0.1,0.2-0.1l15.3-8.6c0.1,0,0.2-0.1,0.3-0.1l12.7-3
		c0.6-0.1,1.1-0.5,1.4-1l3.5-5.8c0,0,0.1-0.1,0.1-0.1l9.5-11.4c0.2-0.2,0.3-0.4,0.4-0.6l6-15.5c0.1-0.2,0.1-0.3,0.1-0.5l1.2-9.3
		c0-0.2,0-0.5,0-0.7l-1.5-8.5c-0.1-0.3-0.2-0.6-0.4-0.9l-4.5-6.4c0-0.1-0.1-0.1-0.1-0.2l-4.5-10.2l-5.1-13.3
		c-0.3-0.8-1.1-1.4-1.9-1.4l-1.9-0.2c-0.4,0-0.7-0.2-0.8-0.6l-1.1-2.2c-0.1-0.2-0.2-0.3-0.3-0.5l-1.5-1.8c-0.1-0.1-0.2-0.3-0.2-0.5
		l-0.6-3.2c-0.1-0.5,0.1-1,0.6-1.2l1.6-0.7c0.7-0.3,1.1-0.9,1.3-1.6l0.4-2.4c0-0.1,0.1-0.3,0.2-0.4l4.2-6.5c0.2-0.3,0.5-0.4,0.8-0.5
		l1.8-0.2c0.4,0,0.8,0.1,1,0.5l1.3,2c0.2,0.3,0.2,0.6,0.1,1l-1,2.4c-0.2,0.6-0.2,1.2,0,1.8l1.9,4.2c0.3,0.7,1,1.2,1.8,1.3
		c0.8,0.1,1.5-0.2,2-0.8l23.4-29.7c0.2-0.3,0.4-0.6,0.4-1l1.4-8.4c0-0.3,0.2-0.5,0.4-0.6l7.5-5.9c0.6-0.4,0.9-1.1,0.9-1.9
		L270.7,46.4z M81.5,226.4c-3.3-7.3-21-46.5-21-57.1c0-11.6,9.4-21,21-21s21,9.4,21,21C102.5,179.9,84.9,219.1,81.5,226.4z
		 M269.9,65.8l-7.5,5.9c-0.4,0.3-0.7,0.8-0.8,1.4l-1.4,8.4c0,0.2-0.1,0.3-0.2,0.5l-23.4,29.7c-0.2,0.3-0.6,0.4-0.9,0.4
		c-0.4,0-0.7-0.3-0.8-0.6l-1.9-4.2c-0.1-0.3-0.1-0.6,0-0.8l1-2.4c0.3-0.7,0.2-1.4-0.2-2.1l-1.3-2c-0.5-0.7-1.3-1.1-2.1-1l-1.8,0.2
		c-0.7,0.1-1.3,0.4-1.7,1l-4.2,6.5c-0.2,0.3-0.3,0.5-0.3,0.8l-0.4,2.4c-0.1,0.3-0.3,0.6-0.6,0.8l-1.6,0.7c-1,0.4-1.5,1.5-1.3,2.5
		l0.6,3.2c0.1,0.4,0.2,0.7,0.5,1l1.5,1.8c0.1,0.1,0.1,0.1,0.1,0.2l1.1,2.2c0.3,0.7,1,1.2,1.8,1.2l1.9,0.2c0.4,0,0.7,0.3,0.9,0.7
		l5.2,13.3l4.5,10.2c0.1,0.1,0.1,0.3,0.2,0.4l4.5,6.4c0.1,0.1,0.2,0.3,0.2,0.4l1.5,8.5c0,0.1,0,0.2,0,0.3l-1.2,9.3
		c0,0.1,0,0.2-0.1,0.2l-6,15.5c0,0.1-0.1,0.2-0.2,0.3l-9.5,11.4c-0.1,0.1-0.1,0.2-0.2,0.3l-3.5,5.8c-0.1,0.2-0.4,0.4-0.7,0.5
		l-12.7,3c-0.2,0-0.4,0.1-0.6,0.2l-15.4,8.6l-3.4,1.6c-0.3,0.1-0.6,0.1-0.9,0l-0.9-0.5V218c0-0.3-0.2-0.5-0.4-0.6l-26.9-7.1
		c-0.3-0.1-0.6-0.1-0.9-0.1l-11.9,1.5c-0.4,0.1-0.8,0.2-1.1,0.5l-3.4,2.8c-0.1,0.1-0.1,0.1-0.2,0.1l-2.4,1.2l-2.4,1
		c-0.5,0.2-1.1,0-1.3-0.5l-6.6-12.7c-0.4-0.7-1.1-1.2-2-1.2h-2.9c-0.6,0-1-0.5-1-1v-2.6c0-0.3,0.1-0.5,0.3-0.7l5-5.6
		c0.3-0.4,0.5-0.8,0.6-1.3l0.6-7.2c0-0.6-0.1-1.1-0.5-1.5l-3.3-4.3c-0.5-0.6-1.2-0.9-2-0.9l-4.4,0.4c-0.6,0.1-1-0.3-1.1-0.9
		l-0.4-2.7c-0.1-0.6-0.4-1.1-0.9-1.5c-0.5-0.3-1.1-0.5-1.7-0.4l-12.7,2.5c-0.2,0-0.4,0.1-0.6,0.2c-0.1,0-0.1,0.1-0.2,0.1l-0.5,0.5
		c0.7-2.9,1.2-5.3,1.2-7c0-12.2-9.9-22.2-22.2-22.2c-12.1,0-22,9.8-22.2,21.8l-3.5-3.2c-0.1,0-0.1-0.1-0.1-0.2l-4.7-6.5
		c-0.3-0.5-0.8-0.8-1.4-0.9l-4.3-0.8c-0.2,0-0.4-0.1-0.6-0.3l-4.8-4.8c-0.3-0.3-0.6-0.5-1-0.6l-2.9-0.8c-0.4-0.1-0.8-0.5-0.8-1v-5.8
		c0-0.5,0.4-1,0.9-1l1.8-0.2c0.6-0.1,1.1-0.4,1.5-0.9c0.4-0.5,0.5-1.1,0.4-1.7l-0.7-5c0-0.3,0.1-0.6,0.3-0.9
		c0.2-0.2,0.5-0.3,0.9-0.3l0.4,0c0.6,0.1,1.2-0.1,1.7-0.5l4.6-4c0.5-0.5,0.8-1.1,0.8-1.8c0-0.7-0.4-1.3-1-1.7L29.8,115
		c-0.2-0.1-0.3-0.3-0.4-0.4l-4.8-10.8c-0.1-0.2-0.1-0.4-0.1-0.6l0.7-4.6c0.1-0.4,0.4-0.7,0.8-0.8l8.6-2.3c0.1,0,0.2-0.1,0.3-0.1
		L56,86.6c0.1,0,0.2-0.1,0.3-0.1l2.7-0.4c0.7-0.1,1.3-0.5,1.6-1c0.4-0.6,0.4-1.3,0.2-1.9l-0.9-2.8c-0.1-0.4,0-0.9,0.4-1.2l6.1-4.2
		l10-7.1c0.1-0.1,0.2-0.1,0.3-0.2l7-6.7c0.3-0.3,0.7-0.4,1-0.2l12.9,3.8c0.2,0.1,0.4,0.2,0.5,0.4l4.1,5.2c0.2,0.2,0.2,0.5,0.2,0.7
		l-0.8,8.6c-0.1,1.1,0.7,2.2,1.8,2.4l9.6,1.9c0.1,0,0.2,0.1,0.3,0.1l5.5,3.2c0.2,0.1,0.3,0.3,0.4,0.5l4,9.1c0.3,0.7,1,1.2,1.7,1.3
		l10.9,1.6l19,4.3c0.2,0.1,0.5,0.1,0.7,0l5.4-0.6c0.4,0,0.8-0.2,1.2-0.5l4.4-3.6c0.2-0.1,0.4-0.2,0.6-0.2l11.1-0.6
		c0.6,0,1.2-0.3,1.6-0.7l12.8-14.3c0,0,0.1-0.1,0.1-0.1L208,70.6c0.2-0.1,0.3-0.3,0.4-0.5l2.4-3.6c0,0,0.1-0.1,0.1-0.1l2.2-2.4
		c0.7-0.8,0.8-1.9,0.2-2.8l-5.2-7.8c-0.2-0.3-0.2-0.8,0-1.1l4.4-7.5l3-5.1c0.2-0.3,0.3-0.7,0.3-1.1v-5.3c0-0.4,0.2-0.8,0.6-0.9
		l7.7-3.6c0.2-0.1,0.4-0.1,0.6-0.1l6.7,0.8c0.3,0,0.5,0.2,0.7,0.4l6,7.2c0,0,0.1,0.1,0.1,0.1l4.6,8.1c0.4,0.7,1.2,1.2,2,1.1l6.5-0.3
		c0.1,0,0.3,0,0.4,0.1l3.8,1.4c0.4,0.1,0.8,0.2,1.2,0.1l11.7-2.2c0.3-0.1,0.6,0,0.8,0.2c0.2,0.2,0.4,0.5,0.4,0.8l0.8,18.5
		C270.3,65.3,270.2,65.6,269.9,65.8z"/>
	<path class="st0" d="M81.5,155c-8.2,0-14.9,6.7-14.9,14.9c0,8.2,6.7,14.9,14.9,14.9s14.9-6.7,14.9-14.9
		C96.4,161.6,89.7,155,81.5,155z M81.5,183.5c-7.5,0-13.7-6.1-13.7-13.7s6.1-13.7,13.7-13.7s13.7,6.1,13.7,13.7
		S89.1,183.5,81.5,183.5z"/>
	<path class="st0" d="M82.5,106.7l-8.8-0.6l-3.5-7.8c-0.1-0.2-0.3-0.4-0.5-0.4c0,0,0,0,0,0c-0.2,0-0.5,0.1-0.5,0.4l-3.3,7.8L57,107
		c-0.2,0-0.5,0.2-0.5,0.4c-0.1,0.2,0,0.5,0.2,0.6l6.8,5.4l-2,8.2c-0.1,0.2,0,0.5,0.2,0.6c0.1,0.1,0.2,0.1,0.4,0.1
		c0.1,0,0.2,0,0.3-0.1l7.5-4.5l7.6,4.3c0.2,0.1,0.5,0.1,0.7,0c0.2-0.1,0.3-0.4,0.2-0.6l-2.1-8.2l6.7-5.5c0.2-0.2,0.3-0.4,0.2-0.6
		C83,106.9,82.8,106.8,82.5,106.7z M75.2,112.7c-0.2,0.1-0.3,0.4-0.2,0.6l1.9,7.1l-6.7-3.8c-0.2-0.1-0.4-0.1-0.6,0l-6.6,3.9l1.7-7.2
		c0.1-0.2,0-0.5-0.2-0.6l-5.9-4.7l7.7-0.7c0.2,0,0.4-0.2,0.5-0.4l2.9-6.9l3,6.8c0.1,0.2,0.3,0.3,0.5,0.4l7.7,0.5L75.2,112.7z"/>
	<path class="st0" d="M88.5,101.2c0.1,0.2,0.3,0.3,0.5,0.3c0,0,0,0,0.1,0c0.2,0,0.4-0.2,0.5-0.4l1-3.3l3.4-0.6
		c0.2,0,0.4-0.2,0.5-0.5c0.1-0.2,0-0.5-0.2-0.6l-2.9-2l0.4-3.4c0-0.2-0.1-0.5-0.3-0.6c-0.2-0.1-0.5-0.1-0.7,0L88,92.2l-3.2-1.5
		c-0.2-0.1-0.5-0.1-0.7,0.1c-0.2,0.2-0.2,0.4-0.2,0.7l1.2,3.3l-2.4,2.5c-0.2,0.2-0.2,0.4-0.1,0.7c0.1,0.2,0.3,0.4,0.6,0.4
		c0,0,0,0,0,0l3.5,0L88.5,101.2z M86.3,95.3c0.2-0.2,0.2-0.4,0.1-0.6l-0.8-2.2l2.2,1.1c0.2,0.1,0.4,0.1,0.6-0.1l1.9-1.4l-0.3,2.4
		c0,0.2,0.1,0.4,0.3,0.6l2,1.4L90,96.7c-0.2,0-0.4,0.2-0.5,0.4l-0.7,2.3l-1.2-2.1c-0.1-0.2-0.3-0.3-0.5-0.3c0,0,0,0,0,0l-2.4,0
		L86.3,95.3z"/>
	<path class="st0" d="M91.8,107.7c0,0.2,0.1,0.5,0.3,0.6l3.2,1.5l0.2,3.5c0,0.2,0.2,0.5,0.4,0.5c0.1,0,0.1,0,0.2,0
		c0.2,0,0.3-0.1,0.4-0.2l2.3-2.5l3.3,1c0.2,0.1,0.5,0,0.6-0.2s0.2-0.5,0.1-0.7l-1.7-3.1l1.9-2.9c0.1-0.2,0.1-0.5,0-0.7
		c-0.1-0.2-0.4-0.3-0.6-0.3L99,105l-2.2-2.8c-0.2-0.2-0.4-0.3-0.6-0.2c-0.2,0.1-0.4,0.3-0.4,0.5l-0.4,3.5l-3.2,1.2
		C91.9,107.2,91.8,107.4,91.8,107.7z M96.2,107c0.2-0.1,0.4-0.3,0.4-0.5l0.3-2.4l1.5,1.9c0.1,0.2,0.4,0.3,0.6,0.2l2.4-0.4l-1.3,2
		c-0.1,0.2-0.1,0.4,0,0.6l1.2,2.1l-2.3-0.7c-0.2-0.1-0.5,0-0.6,0.2l-1.6,1.7l-0.1-2.4c0-0.2-0.1-0.4-0.3-0.5l-2.2-1.1L96.2,107z"/>
	<path class="st0" d="M104.4,120.1l-3.4-0.3l-1.3-3.3c-0.1-0.2-0.3-0.4-0.6-0.4c-0.2,0-0.5,0.1-0.6,0.4l-1.3,3.2l-3.4,0.2
		c-0.2,0-0.5,0.2-0.5,0.4c-0.1,0.2,0,0.5,0.2,0.6l2.6,2.3l-0.8,3.4c-0.1,0.2,0,0.5,0.2,0.6c0.2,0.1,0.5,0.2,0.7,0l2.9-1.8l2.9,1.9
		c0.1,0.1,0.2,0.1,0.3,0.1c0.1,0,0.2,0,0.3-0.1c0.2-0.1,0.3-0.4,0.2-0.6l-0.8-3.5l2.6-2.2c0.2-0.2,0.3-0.4,0.2-0.6
		S104.7,120.1,104.4,120.1z M101.1,122.7c-0.2,0.1-0.2,0.4-0.2,0.6l0.5,2.4l-2-1.3c-0.1-0.1-0.2-0.1-0.3-0.1c-0.1,0-0.2,0-0.3,0.1
		l-2,1.2l0.6-2.4c0.1-0.2,0-0.4-0.2-0.6l-1.8-1.6l2.4-0.1c0.2,0,0.4-0.2,0.5-0.4l0.9-2.2l0.9,2.3c0.1,0.2,0.3,0.4,0.5,0.4l2.4,0.2
		L101.1,122.7z"/>
	<path class="st0" d="M92.7,133.5l1-3.4c0.1-0.2,0-0.5-0.2-0.6c-0.2-0.2-0.4-0.2-0.7-0.1l-3,1.6l-2.8-2.1c-0.2-0.1-0.5-0.2-0.7,0
		c-0.2,0.1-0.3,0.4-0.3,0.6l0.6,3.5l-2.8,2.1c-0.2,0.1-0.3,0.4-0.2,0.6s0.2,0.4,0.5,0.4l3.4,0.6l1.1,3.4c0.1,0.2,0.3,0.4,0.5,0.4
		c0,0,0,0,0,0c0.2,0,0.4-0.1,0.5-0.3l1.5-3.1l3.4,0c0,0,0,0,0,0c0.2,0,0.5-0.1,0.6-0.4s0-0.5-0.1-0.7L92.7,133.5z M90.9,135.8
		C90.9,135.8,90.9,135.8,90.9,135.8c-0.2,0-0.4,0.1-0.5,0.3l-1,2.1l-0.8-2.3c-0.1-0.2-0.3-0.4-0.5-0.4l-2.4-0.4l1.9-1.4
		c0.2-0.1,0.3-0.4,0.2-0.6l-0.4-2.4l1.9,1.4c0.2,0.1,0.4,0.2,0.6,0l2.1-1.1l-0.7,2.3c-0.1,0.2,0,0.4,0.1,0.6l1.7,1.7L90.9,135.8z"/>
</g>
</svg>
