<?xml version="1.0" encoding="utf-8"?>
<!-- Generator: Adobe Illustrator 22.0.1, SVG Export Plug-In . SVG Version: 6.00 Build 0)  -->
<svg version="1.1" id="Слой_1" xmlns="http://www.w3.org/2000/svg" xmlns:xlink="http://www.w3.org/1999/xlink" x="0px" y="0px"
	 viewBox="0 0 290 260" style="enable-background:new 0 0 290 260;" xml:space="preserve">
<style type="text/css">
	.st0{fill:#2d3436;}
</style>
<g>
	<path class="st0" d="M258.2,164.5L209,143.1l0.3-63.9c0-0.2-0.1-0.4-0.3-0.5L155.1,55l57.2-23l-0.2-0.5h0.5V18.5H212l0.2-0.5
		l-5.5-2.1l-0.2,0.5l-0.2-0.5l-69.6,28.2l0,0.1c-0.9,0.4-2.1,1.1-3.2,1.9l-28.6-12c-0.1,0-0.2-0.1-0.3,0l-7.2,2.2l0,0
		c0,0-0.1,0-0.1,0c-0.1,0.1-0.2,0.2-0.2,0.4v108.7l-72.1,34.8h-0.4v9.5c0,0.2,0.1,0.4,0.3,0.5l106,50l0.2-0.5l0.2,0.4l127-67
		c0.2-0.1,0.3-0.3,0.3-0.4v-8C258.5,164.7,258.4,164.6,258.2,164.5z M256.9,165l-48.1,24.6l0.1-23.5c0.5-0.1,1.1-0.2,1.6-0.5
		l9.7-5.2c0.8-0.4,1-1.6,1-2.5c0-0.1,0-0.2,0-0.3c0-0.1,0-0.3,0-0.4c0-0.7-0.4-1.3-1.1-1.6l-11-4.9l0-6.5L256.9,165z M220.1,157.6
		c-0.1,0.2-0.2,0.4-0.4,0.5l-9.7,5.2c-0.3,0.2-0.7,0.3-1.1,0.4l0.1-11.7l10.6,4.7C219.8,156.6,220,157,220.1,157.6z M220,159
		c-0.1,0.3-0.2,0.5-0.3,0.5l-9.7,5.2c-0.3,0.2-0.7,0.3-1.1,0.4l0-0.5c0.5-0.1,1.1-0.2,1.6-0.5L220,159z M207.2,79l-5.1,2.4
		l-53.4-23.8l5.1-2L207.2,79z M147.3,151.8c-0.1,0.2-0.2,0.4-0.4,0.5l-9.7,5.2c-1.1,0.6-2.4,0.6-3.5,0.1l-17.4-7.5
		c-0.2-0.1-0.4-0.3-0.5-0.5c0.1-0.5,0.2-0.9,0.4-1l10.1-5.2c1.1-0.6,2.4-0.6,3.5-0.1l0.2,0.1v3c0,0.2,0.1,0.4,0.3,0.4l1.9,1
		c0.1,0,0.2,0.1,0.2,0.1c0.1,0,0.2,0,0.3-0.1l3.2-1.9l10.9,4.8C147,150.9,147.2,151.3,147.3,151.8z M147.2,153.2
		c-0.1,0.3-0.2,0.5-0.3,0.5l-9.7,5.2c-1.1,0.6-2.4,0.6-3.5,0.1l-17.4-7.5c-0.1-0.1-0.3-0.3-0.3-0.6l17.4,7.5c0.6,0.3,1.3,0.4,2,0.4
		c0.8,0,1.6-0.2,2.4-0.6L147.2,153.2z M131.5,141.2v5.2l-0.4-0.2V141L131.5,141.2z M132.5,146.8v-5.4c0.1,0,0.2,0,0.2-0.1l6.8-3.9
		v5.2L132.5,146.8z M132.5,140.4l-2.9-0.8v-13.7l1.3,0.6l0-0.1c0.1,0,0.1,0.1,0.2,0.1c0.1,0,0.2,0,0.2-0.1l9.4-4.8v14.2L132.5,140.4
		z M128.5,128.5l-14.5,7.1V57.4l14.5,6.3v3.9l-3.3,2.4c-0.1,0.1-0.2,0.2-0.2,0.4v7c0,0.1,0,0.2,0.1,0.3l1.9,2.9v27.1l-0.8,0.5
		c-0.1,0.1-0.2,0.2-0.2,0.4v15.3c0,0.2,0.1,0.4,0.3,0.5l2.2,1V128.5z M128.5,56.4v6.2L108.6,54c-0.2-0.1-0.3-0.1-0.5,0
		c-0.1,0.1-0.2,0.2-0.2,0.4v95.7l-9.9-4.5V37.7l31.6,13.4C129,52.6,128.5,54.3,128.5,56.4z M108.9,55.2l4.1,1.8v79.4c0,0,0,0,0,0
		v11.7l-4.1,2V55.2z M127.6,108.5l3.2,1.3c-0.1,0.1-0.2,0.2-0.2,0.4v15l-3.6-1.6v-14.7L127.6,108.5z M135.8,71.5l-3.3-2.6l0-11.9
		c0-3.5,2.7-7.8,6-9.6c1.6-0.8,3-1,4.1-0.3c0.9,0.6,1.4,1.7,1.4,3.3l-0.1,8l-0.1,0l0.1,0.2l-0.1,4.1c0,0.2,0.1,0.3,0.2,0.4l3.8,2.8
		l0,7l-3.8,2.5c-0.1,0.1-0.2,0.2-0.2,0.4l-0.1,5.1l-11.2,5.9l0-4.7l3.4-3.3c0.1-0.1,0.1-0.2,0.1-0.4l0-6.5
		C136,71.8,135.9,71.6,135.8,71.5z M132.5,87.9l11.2-5.9l-0.1,6.9c0,3.3-2.7,7.3-5.8,9c-1.5,0.8-3,0.9-4,0.3
		c-0.8-0.5-1.2-1.4-1.3-2.6l0-6.8l0,0L132.5,87.9z M132.5,98.4c0.2,0.3,0.5,0.5,0.8,0.7c0.6,0.3,1.2,0.5,2,0.5c0.9,0,1.9-0.3,3-0.8
		c2.3-1.2,4.2-3.4,5.4-5.9l-0.1,10.2l-11,5.7L132.5,98.4z M131.6,125.1v-14.5l0.6-0.3c0,0,0,0,0,0l2.2-1.1l10-5.2l-0.2,14.7
		L131.6,125.1z M141.7,121l3.2-1.7c0.2-0.1,0.3-0.3,0.3-0.4l0.2-15.8c0-0.2-0.1-0.3-0.2-0.4c-0.2-0.1-0.3-0.1-0.5,0l-0.1,0.1
		l0.2-20.8l0,0l0.1-5.8l3.8-2.5c0.1-0.1,0.2-0.2,0.2-0.4l0-1.6l40.7,17.7l-0.2,45.3L150.2,118c-0.1-0.1-0.3-0.1-0.4,0l-8.1,4.1V121z
		 M189.2,155.9l-0.2-0.1c-0.2-0.1-0.4-0.3-0.5-0.5c0.1-0.5,0.2-0.9,0.4-1l0.2-0.1L189.2,155.9z M189.2,157l0,0.4l-0.1-0.1
		c-0.1-0.1-0.3-0.3-0.3-0.6L189.2,157z M188.6,173.1c-0.1,0.2-0.2,0.4-0.4,0.5l-9.7,5.2c-1.1,0.6-2.4,0.6-3.5,0.1l-17.4-7.5
		c-0.2-0.1-0.4-0.3-0.5-0.5c0.1-0.5,0.2-0.9,0.4-1l10.1-5.2c0.6-0.3,1.2-0.5,1.9-0.5c0.6,0,1.1,0.1,1.7,0.4l17,7.5
		C188.3,172.1,188.5,172.5,188.6,173.1z M174.6,179.8c0.6,0.3,1.3,0.4,2,0.4c0.8,0,1.6-0.2,2.4-0.6l9.5-5.1
		c-0.1,0.3-0.2,0.5-0.3,0.5l-9.7,5.2c-1.1,0.6-2.4,0.6-3.5,0.1l-17.4-7.5c-0.1-0.1-0.3-0.3-0.3-0.6L174.6,179.8z M190.3,135
		l0.2-46.1c0-0.2-0.1-0.4-0.3-0.5l-41.4-18l0-4.8c0-0.2-0.1-0.3-0.2-0.4l-3.8-2.8l0-3.4l2.5-1l54.2,24.1v110.9l-11.5-5.1l0.5-52.7
		C190.5,135.3,190.4,135.1,190.3,135z M153.7,54.5L153.7,54.5l-6.3,2.6l-0.2-0.1l-0.1,0.2l-2.2,0.9l0.1-7.6c0-1.7-0.5-3-1.5-3.8
		l68-27.3v12L153.7,54.5L153.7,54.5z M206.5,17l4.1,1.5l-68.3,27.4c-1.2-0.4-2.7-0.2-4.3,0.6c-3.6,1.9-6.5,6.6-6.5,10.5l0,12.1
		c0,0.2,0.1,0.3,0.2,0.4l3.3,2.6l0,6l-3.4,3.3c-0.1,0.1-0.1,0.2-0.1,0.4l0,13.4c0,0.2,0,0.4,0,0.6l0,13l-3.5-1.4V80.4
		c0-0.1,0-0.2-0.1-0.3l-1.9-2.9v-6.6l3.3-2.4c0.1-0.1,0.2-0.2,0.2-0.4V56.4c0-9.5,9.2-11.9,9.6-12l0-0.1L206.5,17z M104.8,35.2
		l28,11.7c-1,0.9-1.9,2-2.6,3.3L99,37L104.8,35.2z M97.5,146.5l10.7,4.9c0.1,0,0.1,0,0.2,0c0.1,0,0.2,0,0.2-0.1l5.1-2.5
		c0.2-0.1,0.3-0.3,0.3-0.4h0v-11.7l14.5-7.1v10.3c0,0.2,0.1,0.4,0.4,0.5l1.2,0.3v1.6c-1.4-0.6-2.9-0.5-4.2,0.2l-10.1,5.2
		c-0.1,0.1-0.2,0.1-0.3,0.2c-0.5,0.4-0.7,0.9-0.7,1.5c0,0.1,0,0.1,0,0.2c0,0.2,0,0.5,0,0.7c0,1.2,0.5,2,1.1,2.3l17.4,7.5
		c0.6,0.3,1.3,0.4,2,0.4c0.8,0,1.6-0.2,2.4-0.6l9.7-5.2c0.8-0.4,1-1.6,1-2.5c0-0.1,0-0.2,0-0.3c0-0.1,0-0.3,0-0.4
		c0-0.7-0.4-1.3-1.1-1.6l-10.2-4.6l3.3-2c0.2-0.1,0.2-0.3,0.2-0.4v-6h-0.1l1-0.6c0.2-0.1,0.3-0.3,0.3-0.4v-12.8l8.3-4.2l39.2,16.7
		l-0.1,17.4l-0.7,0.4c-0.1,0.1-0.2,0.1-0.3,0.2c-0.5,0.4-0.7,0.9-0.7,1.5c0,0.1,0,0.1,0,0.2c0,0.2,0,0.5,0,0.7c0,1.2,0.5,2,1.1,2.3
		l0.5,0.2l-0.1,13.1c-0.2-0.2-0.4-0.4-0.6-0.5l-17-7.5c-1.4-0.6-3-0.6-4.4,0.1L157,169c-0.1,0.1-0.2,0.1-0.3,0.2
		c-0.5,0.4-0.7,0.9-0.7,1.5c0,0.1,0,0.1,0,0.2c0,0.2,0,0.5,0,0.7c0,1.2,0.5,2,1.1,2.3l17.4,7.5c0.6,0.3,1.3,0.4,2,0.4
		c0.8,0,1.6-0.2,2.4-0.6l9.7-5.2c0.2-0.1,0.3-0.2,0.5-0.4l-0.1,12.9v0v0v0h0c0,0.2,0.1,0.4,0.3,0.5l11.5,5.1L131,229.9l-104.8-49
		L97.5,146.5z M25.5,181.7l105,49v8.4l-105-49.5V181.7z M131.5,239.1v-8.4l70.7-36.4l-0.2-0.4h0.5V82.3l5.7-2.7l-0.5,110.8
		c0,0.2,0.1,0.3,0.2,0.4c0.1,0,0.2,0.1,0.3,0.1c0.1,0,0.2,0,0.2-0.1l49-25.1v6.9L131.5,239.1z"/>
	<path class="st0" d="M134.6,96.9c0.4,0.3,0.9,0.4,1.5,0.4c0.7,0,1.4-0.2,2.1-0.6c2.5-1.3,4.5-4.4,4.6-7.1c0-1.3-0.5-2.3-1.3-2.9
		c-1-0.6-2.3-0.5-3.6,0.2c-2.5,1.3-4.6,4.5-4.6,7.1C133.3,95.4,133.8,96.4,134.6,96.9z M138.3,87.9c0.6-0.3,1.2-0.5,1.7-0.5
		c0.4,0,0.7,0.1,1,0.2c0.6,0.3,0.9,1.1,0.9,2c0,2.3-1.8,5.1-4,6.2c-1,0.5-2,0.6-2.6,0.2c-0.6-0.3-0.9-1-0.9-2
		C134.3,91.8,136.1,89.1,138.3,87.9z"/>
	<path class="st0" d="M138.5,59.3c2.6-1.4,4.7-4.7,4.7-7.5c0-1.4-0.5-2.5-1.4-3c-1-0.6-2.3-0.5-3.7,0.2c-2.6,1.4-4.7,4.7-4.7,7.5
		c0,1.4,0.5,2.4,1.4,3c0.4,0.3,0.9,0.4,1.5,0.4C137,60,137.7,59.8,138.5,59.3z M134.4,56.6c0-2.4,1.9-5.4,4.2-6.6
		c0.6-0.3,1.2-0.5,1.7-0.5c0.4,0,0.7,0.1,1,0.3c0.6,0.4,0.9,1.1,0.9,2.2c0,2.4-1.9,5.4-4.2,6.6c-1,0.6-2,0.6-2.7,0.2
		C134.7,58.3,134.4,57.6,134.4,56.6z"/>
	<path class="st0" d="M163.8,145.9c0.8,0,1.6-0.2,2.4-0.6l9.7-5.2c0.8-0.4,1-1.6,1-2.5c0-0.1,0-0.2,0-0.3c0-0.1,0-0.3,0-0.4
		c0-0.7-0.4-1.3-1.1-1.6l-17-7.5c-1.4-0.6-3-0.6-4.4,0.1l-10.1,5.2c-0.1,0.1-0.2,0.1-0.3,0.2c-0.5,0.4-0.7,0.9-0.7,1.5
		c0,0.1,0,0.1,0,0.2c0,0.2,0,0.5,0,0.7c0,1.2,0.5,2,1.1,2.3l17.4,7.5C162.5,145.8,163.1,145.9,163.8,145.9z M154.8,128.9
		c0.6-0.3,1.2-0.5,1.9-0.5c0.6,0,1.1,0.1,1.7,0.4l17,7.5c0.2,0.1,0.4,0.5,0.4,1c-0.1,0.2-0.2,0.4-0.4,0.5l-9.7,5.2
		c-1.1,0.6-2.4,0.6-3.5,0.1l-17.4-7.5c-0.2-0.1-0.4-0.3-0.5-0.5c0.1-0.5,0.2-0.9,0.4-1L154.8,128.9z M144.4,136.5l17.4,7.5
		c0.6,0.3,1.3,0.4,2,0.4c0.8,0,1.6-0.2,2.4-0.6l9.5-5.1c-0.1,0.3-0.2,0.5-0.3,0.5l-9.7,5.2c-1.1,0.6-2.4,0.6-3.5,0.1l-17.4-7.5
		C144.7,137,144.5,136.8,144.4,136.5z"/>
	<path class="st0" d="M130.1,185c0,1.2,0.5,2,1.1,2.3l17.4,7.5c0.6,0.3,1.3,0.4,2,0.4c0.8,0,1.6-0.2,2.4-0.6l9.7-5.2
		c0.8-0.4,1-1.6,1-2.5c0-0.1,0-0.2,0-0.3c0-0.1,0-0.3,0-0.4c0-0.7-0.4-1.3-1.1-1.6l-17-7.5c-1.4-0.6-3-0.6-4.4,0.1l-10.1,5.2
		c-0.1,0.1-0.2,0.1-0.3,0.2c-0.5,0.4-0.7,0.9-0.7,1.5c0,0.1,0,0.1,0,0.2C130.1,184.5,130,184.7,130.1,185z M152.5,193.7
		c-1.1,0.6-2.4,0.6-3.5,0.1l-17.4-7.5c-0.1-0.1-0.3-0.3-0.3-0.6l17.4,7.5c0.6,0.3,1.3,0.4,2,0.4c0.8,0,1.6-0.2,2.4-0.6l9.5-5.1
		c-0.1,0.3-0.2,0.5-0.3,0.5L152.5,193.7z M141.6,178.1c0.6-0.3,1.2-0.5,1.9-0.5c0.6,0,1.1,0.1,1.7,0.4l17,7.5c0.2,0.1,0.4,0.5,0.4,1
		c-0.1,0.2-0.2,0.4-0.4,0.5l-9.7,5.2c-1.1,0.6-2.4,0.6-3.5,0.1l-17.4-7.5c-0.2-0.1-0.4-0.3-0.5-0.5c0.1-0.5,0.2-0.9,0.4-1
		L141.6,178.1z"/>
	<path class="st0" d="M132.1,202.4c0-0.1,0-0.2,0-0.3c0-0.1,0-0.2,0-0.4c0-0.7-0.4-1.3-1.1-1.6l-17-7.5c-1.4-0.6-3-0.6-4.4,0.1
		L99.5,198c-0.1,0.1-0.2,0.1-0.3,0.2c-0.5,0.4-0.7,0.9-0.7,1.5c0,0.1,0,0.1,0,0.2c0,0.2,0,0.5,0,0.7c0,1.2,0.5,2,1.1,2.3l17.4,7.5
		c0.6,0.3,1.3,0.4,2,0.4c0.8,0,1.6-0.2,2.4-0.6l9.7-5.2C131.9,204.5,132.1,203.3,132.1,202.4z M110.1,193.6c0.6-0.3,1.2-0.5,1.9-0.5
		c0.6,0,1.1,0.1,1.7,0.4l17,7.5c0.2,0.1,0.4,0.5,0.4,1c-0.1,0.2-0.2,0.4-0.4,0.5l-9.7,5.2c-1.1,0.6-2.4,0.6-3.5,0.1l-17.4-7.5
		c-0.2-0.1-0.4-0.3-0.5-0.5c0.1-0.5,0.2-0.9,0.4-1L110.1,193.6z M121,209.2c-1.1,0.6-2.4,0.6-3.5,0.1l-17.4-7.5
		c-0.1-0.1-0.3-0.3-0.3-0.6l17.4,7.5c0.6,0.3,1.3,0.4,2,0.4c0.8,0,1.6-0.2,2.4-0.6l9.5-5.1c-0.1,0.3-0.2,0.5-0.3,0.5L121,209.2z"/>
	<path class="st0" d="M89.8,178.9l-17-7.5c-1.4-0.6-3-0.6-4.4,0.1l-10.1,5.2c-0.1,0.1-0.2,0.1-0.3,0.2c-0.5,0.4-0.7,0.9-0.7,1.5
		c0,0.1,0,0.1,0,0.2c0,0.2,0,0.5,0,0.7c0,1.2,0.5,2,1.1,2.3l17.4,7.5c0.6,0.3,1.3,0.4,2,0.4c0.8,0,1.6-0.2,2.4-0.6l9.7-5.2
		c0.8-0.4,1-1.6,1-2.5c0-0.1,0-0.2,0-0.3c0-0.1,0-0.2,0-0.4C90.8,179.8,90.4,179.2,89.8,178.9z M68.8,172.4c0.6-0.3,1.2-0.5,1.9-0.5
		c0.6,0,1.1,0.1,1.7,0.4l17,7.5c0.2,0.1,0.4,0.5,0.4,1c-0.1,0.2-0.2,0.4-0.4,0.5l-9.7,5.2c-1.1,0.6-2.4,0.6-3.5,0.1l-17.4-7.5
		c-0.2-0.1-0.4-0.3-0.5-0.5c0.1-0.5,0.2-0.9,0.4-1L68.8,172.4z M79.8,187.9c-1.1,0.6-2.4,0.6-3.5,0.1l-17.4-7.5
		c-0.1-0.1-0.3-0.3-0.3-0.6l17.4,7.5c0.6,0.3,1.3,0.4,2,0.4c0.8,0,1.6-0.2,2.4-0.6l9.5-5.1c-0.1,0.3-0.2,0.5-0.3,0.5L79.8,187.9z"/>
	<path class="st0" d="M85.8,164.7c0,1.2,0.5,2,1.1,2.3l17.4,7.5c0.6,0.3,1.3,0.4,2,0.4c0.8,0,1.6-0.2,2.4-0.6l9.7-5.2
		c0.8-0.4,1-1.6,1-2.5c0-0.1,0-0.2,0-0.3c0-0.1,0-0.2,0-0.4c0-0.7-0.4-1.3-1.1-1.6l-17-7.5c-1.4-0.6-3-0.6-4.4,0.1l-10.1,5.2
		c-0.1,0.1-0.2,0.1-0.3,0.2c-0.5,0.4-0.7,0.9-0.7,1.5c0,0.1,0,0.1,0,0.2C85.8,164.3,85.8,164.5,85.8,164.7z M108.3,173.4
		c-1.1,0.6-2.4,0.6-3.5,0.1l-17.4-7.5c-0.1-0.1-0.3-0.3-0.3-0.6l17.4,7.5c0.6,0.3,1.3,0.4,2,0.4c0.8,0,1.6-0.2,2.4-0.6l9.5-5.1
		c-0.1,0.3-0.2,0.5-0.3,0.5L108.3,173.4z M97.3,157.9c0.6-0.3,1.2-0.5,1.9-0.5c0.6,0,1.1,0.1,1.7,0.4l17,7.5c0.2,0.1,0.4,0.5,0.4,1
		c-0.1,0.2-0.2,0.4-0.4,0.5l-9.7,5.2c-1.1,0.6-2.4,0.6-3.5,0.1l-17.4-7.5c-0.2-0.1-0.4-0.3-0.5-0.5c0.1-0.5,0.2-0.9,0.4-1
		L97.3,157.9z"/>
</g>
</svg>
