<?xml version="1.0" encoding="utf-8"?>
<!-- Generator: Adobe Illustrator 22.0.1, SVG Export Plug-In . SVG Version: 6.00 Build 0)  -->
<svg version="1.1" id="Слой_1" xmlns="http://www.w3.org/2000/svg" xmlns:xlink="http://www.w3.org/1999/xlink" x="0px" y="0px"
	 viewBox="0 0 88.3 83.5" style="enable-background:new 0 0 88.3 83.5;" xml:space="preserve">
<style type="text/css">
	.st0{fill:#37FF78;}
</style>
<g>
	<path class="st0" d="M60.9,29.6h-1.8v-1.6c0-6.4-5.2-11.7-11.7-11.7H44c-6.4,0-11.7,5.2-11.7,11.7v2.9c-0.6,0.3-1.1,0.6-1.6,1.1
		l-4.2,3.8c-0.7,0.5-1.2,1.3-1.2,2.2v25.8c0,1.5,1.2,2.7,2.7,2.7h29.1c1.2,0,2.2-0.8,2.5-1.9l2.9-4.7c1.2-1.7,1.9-3.7,1.9-5.8V33.1
		C64.4,31.1,62.9,29.6,60.9,29.6z M33.4,27.9c0-5.9,4.8-10.7,10.7-10.7h3.5c5.9,0,10.7,4.8,10.7,10.7v3.5c0,0.5-0.4,0.9-0.9,0.9
		s-0.9-0.4-0.9-0.9v-3.5c0-4.9-4-8.9-8.9-8.9H44c-4.9,0-8.9,4-8.9,8.9v3.5c0,0.5-0.4,0.9-0.9,0.9s-0.9-0.4-0.9-0.9V27.9z M55.4,29.6
		H37.1c-0.4,0-0.7,0-1,0v-1.7c0-4.4,3.6-7.9,7.9-7.9h3.5c4.4,0,7.9,3.6,7.9,7.9V29.6z M31.4,32.6c0.3-0.3,0.7-0.5,1-0.7
		c0.2,0.8,0.9,1.4,1.8,1.4c1,0,1.9-0.8,1.9-1.9v-0.8c0.3,0,0.6,0,1,0h18.3v0.9c0,1,0.8,1.9,1.9,1.9s1.9-0.8,1.9-1.9v-0.9h1.8
		c0.6,0,1.1,0.2,1.5,0.5c-0.1,0-0.2,0.1-0.2,0.2L59,35.9c-0.5-0.4-1.1-0.7-1.8-0.7H28.6L31.4,32.6z M28,65.3c-0.9,0-1.7-0.7-1.7-1.7
		V37.8c0-0.4,0.2-0.8,0.4-1.1c0,0,0,0,0.1,0l0.3-0.3c0.3-0.2,0.6-0.3,0.9-0.3h29.1c0.6,0,1.1,0.3,1.4,0.7c0,0.1,0.1,0.1,0.1,0.2
		c0.1,0.2,0.2,0.5,0.2,0.8v25.8c0,0.1,0,0.2,0,0.4l-0.5,0.9c-0.3,0.3-0.7,0.4-1.1,0.4H28z M63.4,53.9c0,1.9-0.6,3.7-1.7,5.2
		l-1.9,3.1V37.8c0-0.4-0.1-0.8-0.2-1.1l3.4-4.9c0,0,0,0,0-0.1c0.2,0.4,0.4,0.8,0.4,1.3V53.9z"/>
	<path class="st0" d="M42.6,44.1c-2,0-3.6,1.6-3.6,3.6c0,1.2,0.6,2.3,1.5,2.9V58c0,0.3,0.2,0.5,0.5,0.5h3.1c0.3,0,0.5-0.2,0.5-0.5
		v-7.4c1-0.7,1.5-1.8,1.5-2.9C46.2,45.7,44.6,44.1,42.6,44.1z M43.9,49.9c-0.2,0.1-0.2,0.3-0.2,0.4v7.2h-2.1v-7.2
		c0-0.2-0.1-0.3-0.2-0.4c-0.8-0.5-1.3-1.3-1.3-2.2c0-1.4,1.2-2.6,2.6-2.6c1.4,0,2.6,1.2,2.6,2.6C45.2,48.6,44.7,49.4,43.9,49.9z"/>
</g>
</svg>
