<?xml version="1.0" encoding="utf-8"?>
<!-- Generator: Adobe Illustrator 22.0.1, SVG Export Plug-In . SVG Version: 6.00 Build 0)  -->
<svg version="1.1" id="Слой_1" xmlns="http://www.w3.org/2000/svg" xmlns:xlink="http://www.w3.org/1999/xlink" x="0px" y="0px"
	 viewBox="0 0 88.3 83.5" style="enable-background:new 0 0 88.3 83.5;" xml:space="preserve">
<style type="text/css">
	.st0{fill:#37FF78;}
</style>
<g>
	<path class="st0" d="M66.8,27.3c0-0.1,0-0.2-0.1-0.2c0,0,0,0-0.1-0.1c0,0-0.1-0.1-0.1-0.1c0,0,0,0,0,0c0,0,0,0,0,0L42,14.8
		c-0.1-0.1-0.3-0.1-0.4,0L16.4,26.9c0,0,0,0,0,0c0,0,0,0,0,0c0,0-0.1,0.1-0.1,0.1c0,0-0.1,0-0.1,0.1c0,0.1,0,0.1-0.1,0.2
		c0,0,0,0,0,0.1c0,0,0,0,0,0c0,0,0,0,0,0v29.1c0,0.2,0.1,0.3,0.2,0.4l24,14c0,0,0,0,0,0s0,0,0,0l0,0c0.1,0,0.2,0.1,0.3,0.1
		c0.1,0,0.2,0,0.2-0.1l25.7-14c0.2-0.1,0.3-0.3,0.3-0.4L66.8,27.3C66.8,27.3,66.8,27.3,66.8,27.3C66.8,27.3,66.8,27.3,66.8,27.3
		C66.8,27.3,66.8,27.3,66.8,27.3z M40.2,69.5l-23-13.4V28.2l23,12.4V69.5z M40.7,39.7L17.8,27.4l24-11.6l23.5,11.6L40.7,39.7z
		 M65.8,56.1L41.2,69.5V40.6l4.4-2.2l20.3-10.3V56.1z"/>
	<path class="st0" d="M77.8,51.9l-1.9,2.8V29.9l1.9,2.8c0.1,0.1,0.3,0.2,0.4,0.2c0.1,0,0.2,0,0.3-0.1c0.2-0.2,0.3-0.5,0.1-0.7
		L75.8,28c-0.2-0.3-0.6-0.3-0.8,0l-2.8,4.1c-0.2,0.2-0.1,0.5,0.1,0.7c0.2,0.2,0.5,0.1,0.7-0.1l1.9-2.8v24.7L73,51.9
		c-0.2-0.2-0.5-0.3-0.7-0.1c-0.2,0.2-0.3,0.5-0.1,0.7l2.8,4.1c0.1,0.1,0.2,0.2,0.4,0.2s0.3-0.1,0.4-0.2l2.8-4.1
		c0.2-0.2,0.1-0.5-0.1-0.7C78.3,51.6,78,51.6,77.8,51.9z"/>
	<path class="st0" d="M14.8,20.5c0.2,0,0.4-0.2,0.5-0.4c0.1-0.3-0.1-0.5-0.4-0.6l-3-0.7L34.3,8.3l-1.7,2.9c-0.1,0.2-0.1,0.5,0.2,0.7
		c0.1,0,0.2,0.1,0.2,0.1c0.2,0,0.3-0.1,0.4-0.3l2.5-4.3C36,7.3,36,7.1,35.9,7s-0.2-0.3-0.4-0.3l-4.9-0.8c-0.3,0-0.5,0.1-0.6,0.4
		c0,0.3,0.1,0.5,0.4,0.6l3.3,0.5L11.1,18.1l1.7-2.9c0.1-0.2,0.1-0.5-0.2-0.7c-0.2-0.1-0.5-0.1-0.7,0.2l-2.3,4
		c-0.1,0.1-0.1,0.3,0,0.4c0.1,0.1,0.2,0.3,0.3,0.3l4.7,1.1C14.7,20.5,14.7,20.5,14.8,20.5z"/>
	<path class="st0" d="M33.1,74.1c-0.1-0.2-0.4-0.4-0.7-0.2c-0.2,0.1-0.4,0.4-0.2,0.7l1.4,3L12,64.9l3.4-0.3c0.3,0,0.5-0.3,0.5-0.5
		c0-0.3-0.3-0.5-0.5-0.5L10.7,64c-0.2,0-0.3,0.1-0.4,0.2c-0.1,0.1-0.1,0.3,0,0.4l1.8,4.5c0.1,0.2,0.3,0.3,0.5,0.3c0.1,0,0.1,0,0.2,0
		c0.3-0.1,0.4-0.4,0.3-0.6L11.8,66l21.4,12.5l-3.4,0.3c-0.3,0-0.5,0.3-0.5,0.5c0,0.3,0.2,0.5,0.5,0.5c0,0,0,0,0,0l5-0.4
		c0.2,0,0.3-0.1,0.4-0.2c0.1-0.1,0.1-0.3,0-0.5L33.1,74.1z"/>
</g>
</svg>
