<?xml version="1.0" encoding="utf-8"?>
<!-- Generator: Adobe Illustrator 22.0.1, SVG Export Plug-In . SVG Version: 6.00 Build 0)  -->
<svg version="1.1" id="Слой_1" xmlns="http://www.w3.org/2000/svg" xmlns:xlink="http://www.w3.org/1999/xlink" x="0px" y="0px"
	 viewBox="0 0 88.3 83.5" style="enable-background:new 0 0 88.3 83.5;" xml:space="preserve">
<style type="text/css">
	.st0{fill:#37FF78;}
</style>
<g>
	<path class="st0" d="M78.9,59.2c-0.1-0.1-0.2-0.2-0.4-0.2h-6V21.4c0-0.3-0.2-0.5-0.5-0.5H16c-0.3,0-0.5,0.2-0.5,0.5V59H10
		c-0.2,0-0.3,0.1-0.4,0.2s-0.1,0.3-0.1,0.4c0.6,2.3,2.8,3.9,5.1,3.9h59.2c2.4,0,4.5-1.6,5.1-3.9C79,59.5,79,59.3,78.9,59.2z
		 M16.5,21.9h55V59h-55V21.9z M73.9,62.5H14.7c-1.7,0-3.3-1-4-2.5H16h56h5.8C77.1,61.5,75.6,62.5,73.9,62.5z"/>
	<path class="st0" d="M68.3,25h-49c-0.3,0-0.5,0.2-0.5,0.5v29.8c0,0.3,0.2,0.5,0.5,0.5h49c0.3,0,0.5-0.2,0.5-0.5V25.5
		C68.8,25.2,68.6,25,68.3,25z M67.8,54.8h-48V26h48V54.8z"/>
	<path class="st0" d="M33.6,45.8c0.1,0.1,0.2,0.2,0.4,0.2c0.1,0,0.2,0,0.3-0.1c0.2-0.2,0.3-0.5,0.1-0.7l-3.5-4.7l3.5-4.4
		c0.2-0.2,0.1-0.5-0.1-0.7c-0.2-0.2-0.5-0.1-0.7,0.1l-3.8,4.7c-0.1,0.2-0.1,0.4,0,0.6L33.6,45.8z"/>
	<path class="st0" d="M53.3,45.9c0.1,0.1,0.2,0.1,0.3,0.1c0.1,0,0.3-0.1,0.4-0.2l3.8-4.7c0.1-0.2,0.1-0.4,0-0.6L54,35.4
		c-0.2-0.2-0.5-0.3-0.7-0.1c-0.2,0.2-0.3,0.5-0.1,0.7l3.5,4.7l-3.5,4.4C53.1,45.4,53.1,45.7,53.3,45.9z"/>
	<path class="st0" d="M40.3,47.7c0.1,0,0.2,0.1,0.2,0.1c0.2,0,0.3-0.1,0.4-0.3l7-13.2c0.1-0.2,0-0.5-0.2-0.7c-0.2-0.1-0.5,0-0.7,0.2
		l-7,13.2C40,47.3,40.1,47.6,40.3,47.7z"/>
</g>
</svg>
