<?xml version="1.0" encoding="UTF-8"?>
<svg width="198px" height="46px" viewBox="0 0 198 46" version="1.1" xmlns="http://www.w3.org/2000/svg" xmlns:xlink="http://www.w3.org/1999/xlink">
    <!-- Generator: Sketch 48.2 (47327) - http://www.bohemiancoding.com/sketch -->
    <title>Group 22</title>
    <desc>Created with Sketch.</desc>
    <defs></defs>
    <g id="Промо" stroke="none" stroke-width="1" fill="none" fill-rule="evenodd">
        <g id="Group-22" fill-rule="nonzero">
            <g id="header-logo">
                <polygon id="Shape" fill="#37FF78" opacity="0.85" points="178.853907 15.248587 178.592829 19.7586286 174.930653 16.973438 175.387834 12.5953391"></polygon>
                <polygon id="Shape" fill="#37FF78" points="174.934197 16.973438 174.934197 16.973438 175.391378 12.5953391 175.391378 12.5953391 170.949513 14.1210766 170.949513 14.1210766 170.492332 18.4991755"></polygon>
                <polygon id="Shape" fill="#00C256" points="170.492332 18.4991755 174.934197 16.973438 178.596373 19.7586286 174.023378 21.0192813"></polygon>
                <path d="M127.766549,24.8660109 C126.467067,23.7385005 123.986238,23.2083307 120.387855,23.2083307 C118.940655,23.1840108 117.495065,23.3175181 116.075938,23.6065578 C114.932108,23.8624507 113.84601,24.3348913 112.874487,24.9991531 C111.863244,25.7405584 111.072412,26.750185 110.58858,27.9174859 C109.990969,29.445664 109.616849,31.0544207 109.478114,32.6926125 C109.299597,34.0814091 109.321485,35.4892147 109.543088,36.8715979 C109.965663,39.2512851 111.73487,41.1516808 114.051109,41.7138953 C115.69161,42.1535499 117.3851,42.3554619 119.081285,42.3136349 C119.799544,42.3136349 120.518984,42.3136349 121.172269,42.2476635 L121.303399,42.2476635 C121.499503,42.2476635 121.695606,42.1816922 121.894073,42.1816922 C123.844461,42.0160018 125.77167,41.6379951 127.642508,41.0541818 L127.315275,38.7991609 L127.054197,36.0799417 C124.624945,36.3538366 122.182282,36.486795 119.738114,36.4781687 C119.06889,36.5138524 118.400056,36.4008738 117.778259,36.1471125 C117.345013,35.8583127 117.114911,35.3415151 117.187585,34.8204885 L121.629451,34.4894323 C123.53645,34.4339043 125.417699,34.0274949 127.181782,33.2899531 C128.384969,32.6237463 129.154149,31.3638729 129.206611,29.9733932 C129.663793,27.6464036 129.141637,25.92755 127.766549,24.8660109 Z M122.148062,29.1769391 C122.155319,29.6825433 121.909287,30.1573128 121.494777,30.4375917 C120.916978,30.6913144 120.295507,30.8266472 119.666052,30.8358187 L117.641223,31.0349323 C117.743961,30.173623 118.058392,29.3523806 118.555585,28.6467693 C119.084782,28.2047586 119.762834,27.9896151 120.445741,28.0470297 C120.911995,28.0024528 121.382016,28.0706881 121.817285,28.2461432 C122.108268,28.4563739 122.241268,28.827141 122.151606,29.1781385 L122.148062,29.1769391 Z" id="Shape" stroke="#222426" stroke-width="0.25" fill="#FFFFFF"></path>
                <path d="M151.221016,23.6725292 L148.740187,41.845838 L142.53457,41.845838 L142.795648,38.7271922 C140.378611,41.1153552 137.961575,42.308837 135.479565,42.308837 C133.997358,42.4393696 132.528949,41.9344138 131.429907,40.9162417 C130.53233,39.8585682 130.191915,38.4264437 130.515544,37.069512 L132.344269,23.6713297 L139.856456,23.6713297 L138.223834,34.9464339 C138.15886,35.6097458 138.419938,35.9408021 139.073223,35.9408021 C140.245113,35.8257026 141.358109,35.3644968 142.274674,34.6141781 L143.842321,23.6701302 L151.221016,23.6725292 Z" id="Shape" stroke="#222426" stroke-width="0.25" fill="#FFFFFF"></path>
                <path d="M163.107731,28.2485422 L161.926383,36.3402286 C161.861409,36.8044271 162.057513,37.0035406 162.710798,37.0035406 C164.148497,37.0035406 166.499378,36.7384557 166.499378,36.7384557 L165.64999,41.4476109 C163.737763,42.1046354 161.722379,42.3970247 159.705451,42.3100365 C158.16696,42.4135257 156.647797,41.9152456 155.459689,40.9174411 C154.454756,39.9467082 154.032107,38.5077333 154.349223,37.1366828 L155.655793,28.2485422 L152.58429,28.2485422 L153.106446,23.7385005 L156.37287,23.6725292 L157.157285,18.6347167 L164.539523,18.6347167 L163.690135,23.6725292 L168.002052,23.6725292 L167.411378,28.2485422 L163.107731,28.2485422 Z" id="Shape" stroke="#222426" stroke-width="0.25" fill="#FFFFFF"></path>
                <polygon id="Shape" stroke="#222426" stroke-width="0.25" fill="#FFFFFF" points="175.191731 41.845838 167.749244 41.845838 170.16628 23.6725292 177.678466 23.6725292"></polygon>
                <path d="M187.346611,28.5148266 C188.193943,28.4412452 189.044853,28.4192154 189.894777,28.4488552 L196.753679,28.6479688 L197.344352,23.8728422 C194.352842,23.4840708 191.342577,23.2622336 188.32713,23.2083307 C185.321782,23.2083307 183.231979,23.6065578 181.925409,24.4689833 C180.621358,25.2952134 179.774961,26.6951061 179.639503,28.2497417 C179.182321,31.5003302 180.488891,33.5562375 183.624187,34.4870333 L187.347793,35.5485724 C187.90059,35.6967658 188.445517,35.8737227 188.980415,36.0787422 C189.241492,36.2118844 189.306466,36.3438271 189.306466,36.5429406 C189.241492,36.8080255 188.980415,36.9411677 188.392104,37.0071391 C188.131026,37.0071391 187.80143,37.0731104 187.281637,37.0731104 C184.800808,37.0731104 178.985036,36.2106849 178.985036,36.2106849 L178.853907,37.1390818 L178.263233,41.1189536 L178.328207,41.1189536 C181.284617,41.9547744 184.339166,42.3788707 187.408041,42.3796063 C189.648803,42.5161059 191.889117,42.104768 193.940891,41.1801271 C195.49443,40.2185821 196.455749,38.5171276 196.489057,36.6700854 C196.81629,33.6857813 195.50972,31.7618167 192.439399,30.9653625 L188.519689,29.9038234 C188.029017,29.7883215 187.548245,29.6330921 187.08199,29.439625 C186.820912,29.3064828 186.755938,29.1745401 186.755938,28.9754266 C186.759482,28.6467693 186.955585,28.5148266 187.346611,28.5148266 Z" id="Shape" stroke="#222426" stroke-width="0.25" fill="#FFFFFF"></path>
                <path d="M93.6043523,5.16696458 L90.0118756,7.75304167 C89.9227123,7.83613633 89.8068221,7.88345969 89.6858238,7.88618385 L88.8364352,7.88618385 C88.7175575,7.88009226 88.6142404,7.80129628 88.5753575,7.68707031 C88.5753575,7.62109896 88.5753575,7.42198542 88.706487,7.35601406 L92.8872746,4.43768125 L92.9522487,4.43768125 L92.9522487,4.37051042 C92.7990079,4.13858505 92.5660533,3.97305745 92.2989637,3.90631198 L87.2026321,3.90631198 C86.9921267,3.89777265 86.7876839,3.97893903 86.6387154,4.13019403 C86.4897468,4.28144904 86.4098074,4.48902978 86.4182176,4.70276615 L86.4182176,8.88055208 C86.4123292,9.1285628 86.5067714,9.36819392 86.6795407,9.54361493 C86.85231,9.71903595 87.0883187,9.81492775 87.3325803,9.80894896 L92.5588601,9.80894896 C92.6798584,9.81167312 92.7957486,9.85899648 92.8849119,9.94209115 L93.4755855,10.4722609 C93.5643791,10.557354 93.5904455,10.6901646 93.5405596,10.8033172 C93.5016767,10.9175432 93.3983596,10.9963391 93.2794819,11.0024307 L87.1364767,11.0024307 C86.6685327,11.004031 86.2192998,10.815996 85.8884115,10.480029 C85.5575233,10.1440621 85.3723306,9.6879341 85.3739067,9.21280781 L85.3739067,4.56962396 C85.3720132,4.09408151 85.5572282,3.63746084 85.8884072,3.3011988 C86.219586,2.96493676 86.6693042,2.77687886 87.137658,2.77880156 L92.1678342,2.77880156 C92.9335952,2.85372944 93.6038219,3.33277839 93.9315855,4.03945417 C94.1276891,4.43768125 94.1926632,4.7687375 93.6043523,5.16696458 Z M106.8,10.8716875 C106.688558,10.9223386 106.557755,10.8958727 106.473948,10.8057161 L106.016767,10.2755464 C105.934928,10.1850141 105.88832,10.0673452 105.885637,9.9444901 L105.885637,7.8202125 L105.885637,4.30453906 C105.878977,4.2541149 105.856141,4.20732279 105.820663,4.17139687 C105.748789,4.16166845 105.676494,4.18598901 105.62456,4.23736823 L101.771005,8.15126875 C101.629088,8.28407445 101.441784,8.35549889 101.24885,8.35038229 C101.055916,8.35549889 100.868612,8.28407445 100.726694,8.15126875 L96.8707772,4.23856771 C96.8188428,4.18718849 96.7465479,4.16286793 96.6746736,4.17259635 C96.6096995,4.17259635 96.6096995,4.23856771 96.6096995,4.30573854 L96.6096995,7.8202125 L96.6096995,9.94329062 C96.6070166,10.0661458 96.560409,10.1838147 96.4785699,10.2743469 L96.0213886,10.8045167 C95.9375815,10.8946732 95.8067792,10.9211391 95.6953368,10.870488 C95.5828371,10.8310087 95.5052332,10.7261056 95.4992332,10.6054031 L95.4992332,7.8202125 L95.4992332,4.10782448 C95.4886967,3.4897975 95.8916542,2.94295686 96.4785699,2.77880156 C96.7350014,2.66965793 97.0277333,2.69427747 97.2629845,2.84477292 C97.2629845,2.84477292 100.39828,6.16133281 101.051565,6.89061615 C101.116539,6.9565875 101.116539,6.9565875 101.182694,6.9565875 C101.247668,6.9565875 101.313824,6.9565875 101.313824,6.89061615 C101.967109,6.16133281 105.102404,2.84477292 105.102404,2.84477292 C105.325972,2.66194276 105.636671,2.63581212 105.886819,2.77880156 C106.46132,2.95965303 106.856372,3.49479509 106.866155,4.10542552 L106.866155,10.6054031 C106.99256,10.8045167 106.93113,10.870488 106.801181,10.870488 L106.8,10.8716875 Z M116.272041,10.672574 C116.233159,10.7867999 116.129842,10.8655959 116.010964,10.8716875 L110.71971,10.8716875 C110.251356,10.8736102 109.801638,10.6855523 109.470459,10.3492903 C109.13928,10.0130282 108.954065,9.55640756 108.955959,9.0808651 L108.955959,2.90834531 C108.955959,2.77520312 109.020933,2.70923177 109.152062,2.64326042 L109.283192,2.64326042 C109.348166,2.64326042 109.414321,2.70923177 109.479295,2.70923177 L109.936477,3.23940156 C110.018316,3.32993378 110.064923,3.44760268 110.067606,3.57045781 L110.067606,8.88055208 C110.040924,9.11376832 110.140862,9.34334142 110.328684,9.48029167 C110.482051,9.64628843 110.695218,9.74195468 110.919358,9.74537656 L115.290342,9.74537656 C115.41134,9.74810072 115.52723,9.79542409 115.616394,9.87851875 L116.207067,10.3427172 C116.265998,10.4411617 116.289385,10.5573471 116.273223,10.6713745 L116.272041,10.672574 Z M118.687896,4.5036526 L118.687896,9.34475052 L118.687896,10.0080625 C118.685214,10.1309176 118.638606,10.2485865 118.556767,10.3391187 L118.099585,10.8692885 C118.015778,10.9594451 117.884976,10.985911 117.773534,10.9352599 C117.661034,10.8957806 117.58343,10.7908775 117.57743,10.670175 L117.57743,8.68263802 L117.57743,3.57525573 C117.580113,3.4524006 117.626721,3.33473169 117.70856,3.24419948 L118.165741,2.71402969 C118.249548,2.62387316 118.38035,2.59740728 118.491793,2.64805833 C118.602772,2.68687463 118.680039,2.78943184 118.687896,2.90834531 L118.687896,4.5036526 Z M128.224912,10.2083755 C127.824641,10.6065975 127.282439,10.8229982 126.722238,10.8081151 L120.518984,10.8081151 C120.387855,10.8081151 120.322881,10.6749729 120.257907,10.6090016 C120.248105,10.5156254 120.271118,10.4217363 120.322881,10.3439167 L120.913554,9.81374687 C121.002718,9.73065221 121.118608,9.68332885 121.239606,9.68060469 L126.595834,9.61463333 C127.20157,9.59648641 127.688428,9.10215623 127.706301,8.48712292 L127.706301,4.70756406 C127.719219,4.4582963 127.623782,4.21582352 127.445223,4.04425208 C127.283776,3.89021894 127.075413,3.79670854 126.854549,3.77916719 L120.974984,3.77916719 C120.836053,3.76528661 120.701993,3.71977732 120.582777,3.646025 L120.060622,3.11585521 C119.995648,3.04988385 119.929492,2.98271302 119.995648,2.85077031 C119.995648,2.78439914 120.061015,2.71802795 120.191751,2.65165677 L127.050653,2.65165677 C127.535853,2.65101904 128.001362,2.84644016 128.34445,3.19479488 C128.687539,3.54314959 128.880007,4.01580297 128.879378,4.50845052 L128.879378,8.61546719 C128.854776,9.20776335 128.623654,9.77190393 128.227275,10.207176 L128.224912,10.2083755 Z" id="Shape" fill="#FFFFFF"></path>
                <path d="M109.800622,16.2429552 L101.831254,16.2429552 L100.649907,24.3346417 L100.257699,27.0538609 C100.192725,27.5180594 99.9316477,30.1725068 99.9316477,30.1725068 L98.5601036,27.3873161 L98.364,26.9890891 L95.9469637,22.2139625 L95.624456,21.549451 L94.1265078,18.5627479 C93.9796214,18.1957848 93.8050514,17.8408837 93.6043523,17.5012089 C93.458365,17.2386237 93.2831665,16.9939267 93.0821969,16.7719255 C92.8914093,16.5185667 92.6456123,16.3133287 92.3639378,16.1721859 C92.0442594,16.0864023 91.7152459,16.0416724 91.384601,16.0390438 L86.2918135,16.0390438 C86.2918135,16.0390438 86.0307358,17.7638948 85.8996062,18.6922917 L82.6296373,41.845838 L89.8807461,41.845838 L91.9717306,27.7183724 L92.6899896,29.2441099 C92.8860933,29.7742797 98.3084767,40.9174411 98.6995026,41.3156682 C99.1419584,41.7249124 99.7378926,41.9184334 100.332124,41.845838 L104.18686,41.845838 L106.077016,41.6467245 L109.800622,16.2429552 Z" id="Shape" stroke="#222426" stroke-width="0.25" fill="#FFFFFF"></path>
                <g id="Group" transform="translate(0.000000, 0.005606)">
                    <polygon id="Shape" fill="#37FF78" points="55.6083731 10.9332526 55.6083731 10.9332526 44.9171813 3.43650781 44.9171813 3.43650781 44.9171813 15.0714557 44.9171813 15.0714557 44.8403938 28.9734193 55.5315855 36.4701641"></polygon>
                    <polygon id="Shape" fill="#00C256" points="44.9171813 28.9722198 32.0735751 33.9704495 21.3823834 38.1086526 21.3823834 38.1086526 32.0735751 45.6053974 32.0735751 45.6053974 55.5315855 36.4689646"></polygon>
                    <polygon id="Shape" fill="#37FF78" points="55.6083731 10.9332526 44.9171813 15.0714557 34.2259896 7.57471094 44.9171813 3.43650781"></polygon>
                    <polygon id="Shape" fill="#00C256" points="21.3823834 38.1086526 21.3823834 38.1086526 21.3823834 26.4737047 21.3823834 26.4737047 32.0735751 33.9704495 32.0735751 33.9704495 32.0735751 45.6053974"></polygon>
                    <polygon id="Shape" fill="#37FF78" points="0 34.6733443 0 34.6733443 10.6911917 42.1700891 10.6911917 42.1700891 10.6911917 30.5351411 10.6911917 30.5351411 10.6911917 16.6331776 0 9.13643281"></polygon>
                    <polygon id="Shape" fill="#00C256" points="0 34.6745437 10.6911917 30.5351411 21.3823834 38.0318859 10.6911917 42.1700891"></polygon>
                    <polygon id="Shape" fill="#37FF78" points="34.2259896 7.49674479 34.2259896 7.49674479 34.2259896 19.1316927 34.1492021 19.1316927 23.5347979 11.6349479 23.5347979 11.6349479 23.5347979 0"></polygon>
                    <polygon id="Shape" fill="#37FF78" points="10.6911917 16.6343771 23.4580104 11.6349479 34.1492021 7.49554531 34.1492021 7.49554531 23.5347979 0 23.5347979 0 0 9.13643281"></polygon>
                </g>
            </g>
        </g>
    </g>
</svg>