<?xml version="1.0" encoding="utf-8"?>
<!-- Generator: Adobe Illustrator 22.0.1, SVG Export Plug-In . SVG Version: 6.00 Build 0)  -->
<svg version="1.1" id="Слой_1" xmlns="http://www.w3.org/2000/svg" xmlns:xlink="http://www.w3.org/1999/xlink" x="0px" y="0px"
	 viewBox="0 0 88.3 83.5" style="enable-background:new 0 0 88.3 83.5;" xml:space="preserve">
<style type="text/css">
	.st0{fill:#37FF78;}
</style>
<g>
	<g>
		<path class="st0" d="M51.4,68.1c-0.1,0-0.3-0.1-0.4-0.2L48.4,65c-2.7,0.5-5.4,0.5-8.1,0l-2.6,2.9c-0.1,0.1-0.3,0.2-0.5,0.1
			c-2-0.6-4-1.4-5.9-2.4c-0.2-0.1-0.3-0.3-0.3-0.5l0.2-3.9c-2.2-1.6-4.2-3.5-5.7-5.7l-3.9,0.2c-0.2,0-0.4-0.1-0.5-0.3
			c-1-1.8-1.9-3.8-2.4-5.9c-0.1-0.2,0-0.4,0.1-0.5l2.9-2.6c-0.2-1.3-0.4-2.7-0.4-4c0-1.3,0.1-2.7,0.4-4l-2.9-2.6
			c-0.1-0.1-0.2-0.3-0.1-0.5c0.6-2,1.4-4,2.4-5.9c0.1-0.2,0.3-0.3,0.5-0.3l3.9,0.2c1.6-2.2,3.5-4.2,5.7-5.7L31,19.7
			c0-0.2,0.1-0.4,0.3-0.5c1.8-1,3.8-1.9,5.9-2.4c0.2-0.1,0.4,0,0.5,0.1l2.6,2.9c2.7-0.5,5.4-0.5,8.1,0L51,17
			c0.1-0.1,0.3-0.2,0.5-0.1c2,0.6,4,1.4,5.8,2.4c0.2,0.1,0.3,0.3,0.3,0.5l-0.2,3.9c2.2,1.6,4.2,3.5,5.7,5.7l3.9-0.2
			c0.2,0,0.4,0.1,0.5,0.3c1,1.8,1.9,3.8,2.4,5.9c0.1,0.2,0,0.4-0.1,0.5l-2.9,2.6c0.2,1.3,0.4,2.7,0.4,4s-0.1,2.7-0.4,4l2.9,2.6
			c0.1,0.1,0.2,0.3,0.1,0.5c-0.6,2-1.4,4-2.4,5.9c-0.1,0.2-0.3,0.3-0.5,0.3l-3.9-0.2c-1.6,2.2-3.5,4.2-5.7,5.7l0.2,3.9
			c0,0.2-0.1,0.4-0.3,0.5c-1.8,1-3.8,1.9-5.8,2.4C51.5,68.1,51.4,68.1,51.4,68.1z M32,64.9c1.6,0.9,3.3,1.6,5.1,2.1l2.6-2.9
			c0.1-0.1,0.3-0.2,0.5-0.2c2.7,0.5,5.5,0.5,8.3,0c0.2,0,0.3,0,0.5,0.2l2.6,2.9c1.8-0.5,3.5-1.2,5.1-2.1L56.4,61
			c0-0.2,0.1-0.3,0.2-0.4c2.3-1.6,4.3-3.5,5.9-5.9c0.1-0.1,0.3-0.2,0.4-0.2l3.9,0.2c0.9-1.6,1.6-3.3,2.1-5.1L66,47.1
			c-0.1-0.1-0.2-0.3-0.2-0.5c0.3-1.4,0.4-2.8,0.4-4.1s-0.1-2.8-0.4-4.1c0-0.2,0-0.3,0.2-0.5l2.9-2.6c-0.5-1.8-1.2-3.5-2.1-5.1
			l-3.9,0.2c-0.2,0-0.3-0.1-0.4-0.2c-1.6-2.3-3.5-4.3-5.9-5.9c-0.1-0.1-0.2-0.3-0.2-0.4l0.2-3.9c-1.6-0.9-3.3-1.6-5.1-2.1l-2.6,2.9
			c-0.1,0.1-0.3,0.2-0.5,0.2c-2.7-0.5-5.5-0.5-8.3,0c-0.2,0-0.3,0-0.5-0.2l-2.6-2.9c-1.8,0.5-3.5,1.2-5.1,2.1l0.2,3.9
			c0,0.2-0.1,0.3-0.2,0.4c-2.3,1.6-4.3,3.5-5.9,5.9c-0.1,0.1-0.3,0.2-0.4,0.2l-3.9-0.2c-0.9,1.6-1.6,3.3-2.1,5.1l2.9,2.6
			c0.1,0.1,0.2,0.3,0.2,0.5c-0.3,1.4-0.4,2.8-0.4,4.1s0.1,2.8,0.4,4.1c0,0.2,0,0.3-0.2,0.5l-2.9,2.6c0.5,1.8,1.2,3.5,2.1,5.1
			l3.9-0.2c0.2,0,0.3,0.1,0.4,0.2c1.6,2.3,3.5,4.3,5.9,5.9c0.1,0.1,0.2,0.3,0.2,0.4L32,64.9z"/>
	</g>
	<g>
		<path class="st0" d="M44.3,58.5c-8.8,0-16-7.2-16-16c0-3.6,1.1-6.9,3.3-9.7l0,0c3.1-4,7.7-6.3,12.7-6.3c8.8,0,16,7.2,16,16
			C60.3,51.3,53.2,58.5,44.3,58.5z M32.4,33.3c-2,2.6-3.1,5.8-3.1,9.1c0,8.3,6.7,15,15,15s15-6.7,15-15c0-8.3-6.7-15-15-15
			C39.6,27.4,35.3,29.6,32.4,33.3L32.4,33.3z"/>
	</g>
	<g>
		<path class="st0" d="M44.3,55.5c-7.2,0-13.1-5.9-13.1-13.1c0-7.2,5.9-13.1,13.1-13.1s13.1,5.9,13.1,13.1
			C57.4,49.7,51.5,55.5,44.3,55.5z M44.3,30.4c-6.7,0-12.1,5.4-12.1,12.1c0,6.7,5.4,12.1,12.1,12.1s12.1-5.4,12.1-12.1
			C56.4,35.8,51,30.4,44.3,30.4z"/>
	</g>
</g>
</svg>
