<?xml version="1.0" encoding="utf-8"?>
<!-- Generator: Adobe Illustrator 22.0.1, SVG Export Plug-In . SVG Version: 6.00 Build 0)  -->
<svg version="1.1" id="Слой_1" xmlns="http://www.w3.org/2000/svg" xmlns:xlink="http://www.w3.org/1999/xlink" x="0px" y="0px"
	 viewBox="0 0 88.3 83.5" style="enable-background:new 0 0 88.3 83.5;" xml:space="preserve">
<style type="text/css">
	.st0{fill:#37FF78;}
</style>
<g>
	<path class="st0" d="M58.2,26.2H30.2c-1.8,0-3.2,1.4-3.2,3.2V56c0,1.8,1.4,3.2,3.2,3.2h27.9c1.8,0,3.2-1.4,3.2-3.2V29.4
		C61.3,27.7,59.9,26.2,58.2,26.2z M60.4,56c0,1.3-1,2.3-2.3,2.3H30.2c-1.3,0-2.3-1-2.3-2.3V29.4c0-1.3,1-2.3,2.3-2.3h27.9
		c1.3,0,2.3,1,2.3,2.3V56z"/>
	<path class="st0" d="M71.1,43.1c0.3,0,0.5-0.2,0.5-0.5c0-0.3-0.2-0.5-0.5-0.5h-7V31.8h7c0.3,0,0.5-0.2,0.5-0.5s-0.2-0.5-0.5-0.5h-7
		v-2.2c0-2.9-2.3-5.2-5.2-5.2h-3c0,0,0-0.1,0-0.1v-7.2c0-0.3-0.2-0.5-0.5-0.5S55,16,55,16.3v7.2c0,0,0,0.1,0,0.1H44.6
		c0,0,0-0.1,0-0.1v-7.2c0-0.3-0.2-0.5-0.5-0.5s-0.5,0.2-0.5,0.5v7.2c0,0,0,0.1,0,0.1H33.3c0,0,0-0.1,0-0.1v-7.2
		c0-0.3-0.2-0.5-0.5-0.5s-0.5,0.2-0.5,0.5v7.2c0,0,0,0.1,0,0.1h-3c-2.9,0-5.2,2.3-5.2,5.2v2.2h-7c-0.3,0-0.5,0.2-0.5,0.5
		s0.2,0.5,0.5,0.5h7v10.4h-7c-0.3,0-0.5,0.2-0.5,0.5c0,0.3,0.2,0.5,0.5,0.5h7v10.4h-7c-0.3,0-0.5,0.2-0.5,0.5s0.2,0.5,0.5,0.5h7v2.3
		c0,2.9,2.3,5.2,5.2,5.2h3v7.2c0,0.3,0.2,0.5,0.5,0.5s0.5-0.2,0.5-0.5v-7.2h10.4v7.2c0,0.3,0.2,0.5,0.5,0.5s0.5-0.2,0.5-0.5v-7.2H55
		v7.2c0,0.3,0.2,0.5,0.5,0.5s0.5-0.2,0.5-0.5v-7.2h3c2.9,0,5.2-2.3,5.2-5.2v-2.3h7c0.3,0,0.5-0.2,0.5-0.5s-0.2-0.5-0.5-0.5h-7V43.1
		H71.1z M63.2,56.8c0,2.4-1.9,4.3-4.3,4.3H29.4c-2.4,0-4.3-1.9-4.3-4.3V28.7c0-2.4,1.9-4.3,4.3-4.3H59c2.4,0,4.3,1.9,4.3,4.3V56.8z"
		/>
	<path class="st0" d="M45.8,35.3h-1.3l-6.7,10.1V46h6.8v3.6h1.2V46H48v-1h-2.2V35.3z M44.6,45h-5.3l4.8-7.3l0.5-0.9V45z"/>
</g>
</svg>
