<?xml version="1.0" encoding="utf-8"?>
<!-- Generator: Adobe Illustrator 22.0.1, SVG Export Plug-In . SVG Version: 6.00 Build 0)  -->
<svg version="1.1" id="Слой_1" xmlns="http://www.w3.org/2000/svg" xmlns:xlink="http://www.w3.org/1999/xlink" x="0px" y="0px"
	 viewBox="0 0 88.3 83.5" style="enable-background:new 0 0 88.3 83.5;" xml:space="preserve">
<style type="text/css">
	.st0{fill:#37FF78;}
</style>
<g>
	<g>
		<g>
			<path class="st0" d="M65.8,59H21.2c-0.3,0-0.5-0.2-0.5-0.5v-7.2c0-0.3,0.2-0.5,0.5-0.5h44.6c0.3,0,0.5,0.2,0.5,0.5v7.2
				C66.2,58.8,66,59,65.8,59z M21.7,58.1h43.6v-6.3H21.7V58.1z"/>
		</g>
		<g>
			<path class="st0" d="M65.8,46H21.2c-0.3,0-0.5-0.2-0.5-0.5v-7.2c0-0.3,0.2-0.5,0.5-0.5h44.6c0.3,0,0.5,0.2,0.5,0.5v7.2
				C66.2,45.8,66,46,65.8,46z M21.7,45.1h43.6v-6.3H21.7V45.1z"/>
		</g>
		<g>
			<path class="st0" d="M65.8,33H21.2c-0.3,0-0.5-0.2-0.5-0.5v-7.2c0-0.3,0.2-0.5,0.5-0.5h44.6c0.3,0,0.5,0.2,0.5,0.5v7.2
				C66.2,32.8,66,33,65.8,33z M21.7,32.1h43.6v-6.3H21.7V32.1z"/>
		</g>
	</g>
	<g>
		<path class="st0" d="M66.3,65.3H20.7c-2,0-3.6-1.6-3.6-3.6V22.2c0-2,1.6-3.6,3.6-3.6h45.5c2,0,3.6,1.6,3.6,3.6v39.5
			C69.8,63.7,68.2,65.3,66.3,65.3z M20.7,19.5c-1.5,0-2.7,1.2-2.7,2.7v39.5c0,1.5,1.2,2.7,2.7,2.7h45.5c1.5,0,2.7-1.2,2.7-2.7V22.2
			c0-1.5-1.2-2.7-2.7-2.7H20.7z"/>
	</g>
	<g>
		<circle class="st0" cx="24.2" cy="55" r="0.9"/>
	</g>
	<g>
		<circle class="st0" cx="24.2" cy="41.9" r="0.9"/>
	</g>
	<g>
		<circle class="st0" cx="24.2" cy="28.9" r="0.9"/>
	</g>
</g>
</svg>
