<?xml version="1.0" encoding="utf-8"?>
<!-- Generator: Adobe Illustrator 22.0.1, SVG Export Plug-In . SVG Version: 6.00 Build 0)  -->
<svg version="1.1" id="Слой_1" xmlns="http://www.w3.org/2000/svg" xmlns:xlink="http://www.w3.org/1999/xlink" x="0px" y="0px"
	 viewBox="0 0 88.3 83.5" style="enable-background:new 0 0 88.3 83.5;" xml:space="preserve">
<style type="text/css">
	.st0{fill:#37FF78;}
</style>
<g>
	<path class="st0" d="M45,17.9c0-0.3-0.2-0.5-0.5-0.5S44,17.7,44,17.9v32.8c-4.5,0.3-8.1,4-8.1,8.6c0,4.7,3.9,8.6,8.6,8.6
		s8.6-3.9,8.6-8.6c0-4.6-3.6-8.3-8.1-8.6V17.9z M52.1,59.3c0,4.2-3.4,7.6-7.6,7.6c-4.2,0-7.6-3.4-7.6-7.6s3.4-7.6,7.6-7.6
		C48.7,51.7,52.1,55.1,52.1,59.3z"/>
	<path class="st0" d="M58.1,30.4c0.3,0,0.5-0.2,0.5-0.5s-0.2-0.5-0.5-0.5h-6.9v-4.5H55c0.3,0,0.5-0.2,0.5-0.5s-0.2-0.5-0.5-0.5h-3.8
		v-4.5h6.9c0.3,0,0.5-0.2,0.5-0.5s-0.2-0.5-0.5-0.5h-6.9v-1.4c0-3.7-3-6.7-6.7-6.7s-6.7,3-6.7,6.7v29.7c-4.6,2.5-7.4,7.2-7.4,12.5
		c0,7.8,6.3,14.1,14.1,14.1s14.1-6.3,14.1-14.1c0-5.2-2.8-10-7.4-12.5v-5.4h6.9c0.3,0,0.5-0.2,0.5-0.5s-0.2-0.5-0.5-0.5h-6.9v-4.5
		H55c0.3,0,0.5-0.2,0.5-0.5s-0.2-0.5-0.5-0.5h-3.8v-4.5H58.1z M57.6,59.3c0,7.2-5.9,13.1-13.1,13.1c-7.2,0-13.1-5.9-13.1-13.1
		c0-5,2.7-9.4,7.2-11.7c0.2-0.1,0.3-0.3,0.3-0.4v-30c0-3.1,2.6-5.7,5.7-5.7c3.1,0,5.7,2.6,5.7,5.7v30c0,0.2,0.1,0.4,0.3,0.4
		C54.9,49.8,57.6,54.3,57.6,59.3z"/>
</g>
</svg>
